<?xml version="1.0" ?><!DOCTYPE svg  PUBLIC '-//W3C//DTD SVG 1.1//EN'  'http://www.w3.org/Graphics/SVG/1.1/DTD/svg11.dtd'><svg height="48px" id="Layer_1" style="enable-background:new 0 0 48 48;" version="1.1" viewBox="0 0 48 48" width="48px" xml:space="preserve" xmlns="http://www.w3.org/2000/svg" xmlns:xlink="http://www.w3.org/1999/xlink"><path d="M34.596,27.556c1.68-1.67,2.729-4,2.729-6.56  c0-5.11-4.149-9.25-9.25-9.25h-8.84c-2.55,0-4.86,1.03-6.54,2.71c-1.67,1.67-2.71,3.979-2.71,6.54c0,5.11,4.15,9.25,9.25,9.25h7.66" style="fill:none;stroke:#231F20;stroke-miterlimit:10;"/><path d="M26.799,30.241c0,0,4.187,0.326,3.643,3.302  c-0.536,2.978,0.373-1.604,4.354-6.205" style="fill:none;stroke:#231F20;stroke-miterlimit:10;"/><path d="M18.822,21.166c0,1.059-0.858,1.916-1.917,1.916l0,0  c-1.059,0-1.917-0.857-1.917-1.916l0,0c0-1.059,0.858-1.917,1.917-1.917l0,0C17.964,19.249,18.822,20.107,18.822,21.166  L18.822,21.166z" style="fill:none;stroke:#231F20;stroke-miterlimit:10;"/><path d="M25.072,21.083c0,1.059-0.858,1.916-1.917,1.916l0,0  c-1.059,0-1.917-0.857-1.917-1.916l0,0c0-1.059,0.858-1.917,1.917-1.917l0,0C24.214,19.166,25.072,20.024,25.072,21.083  L25.072,21.083z" style="fill:none;stroke:#231F20;stroke-miterlimit:10;"/><path d="M31.404,21.166c0,1.059-0.857,1.916-1.916,1.916l0,0  c-1.059,0-1.916-0.857-1.916-1.916l0,0c0-1.059,0.857-1.917,1.916-1.917l0,0C30.547,19.249,31.404,20.107,31.404,21.166  L31.404,21.166z" style="fill:none;stroke:#231F20;stroke-miterlimit:10;"/></svg>